<svg xmlns="http://www.w3.org/2000/svg" viewBox="0 0 40 40" fill="none">
  <defs>
    <linearGradient id="bg" x1="0%" y1="0%" x2="100%" y2="100%">
      <stop offset="0%" style="stop-color:#1e1e2e"/>
      <stop offset="100%" style="stop-color:#12121f"/>
    </linearGradient>
  </defs>

  <!-- Dark background -->
  <rect width="40" height="40" rx="9" fill="url(#bg)"/>

  <!-- Left curly bracket { -->
  <path d="M11 8 C9 8 8 9 8 11 L8 14 C8 16 7 17 5.5 17.5 C7 18 8 19 8 21 L8 24 C8 26 9 27 11 27"
    stroke="#ef4444" stroke-width="2" stroke-linecap="round" fill="none"/>

  <!-- Right curly bracket } -->
  <path d="M29 8 C31 8 32 9 32 11 L32 14 C32 16 33 17 34.5 17.5 C33 18 32 19 32 21 L32 24 C32 26 31 27 29 27"
    stroke="#ef4444" stroke-width="2" stroke-linecap="round" fill="none"/>

  <!-- Letter J -->
  <path d="M14.5 10 L14.5 21 C14.5 23.2 13 24.5 11.5 24.5"
    stroke="white" stroke-width="2" stroke-linecap="round" fill="none"/>

  <!-- Letter V -->
  <path d="M19 10 L22 23 L25 10"
    stroke="white" stroke-width="2" stroke-linecap="round" stroke-linejoin="round" fill="none"/>

  <!-- Red dot accent at bottom center -->
  <circle cx="20" cy="33" r="1.5" fill="#ef4444"/>
</svg>
